<svg viewBox="0 0 150 150" xmlns="http://www.w3.org/2000/svg">
  <defs>
    <style>.a{fill:#193549;}.h{fill-rule:evenodd;}.b{mask:url(#a);}.c{fill:#C48F00;}.d{fill:#D39E00;}.e{fill:#E2AD00;}.f{fill:#ffc600;}.g{opacity:0.25;}.h{fill:url(#b);}</style>
  </defs>
  <title>BrandVisualStudioWin2019</title>
  <g class="b">
    <rect x="0" y="0" width="150" height="150" class="a"></rect>
    <path class="c" d="M 40.148 99.039 C 39.001 100.019 37.4 100.27 36.008 99.689 L 28.738 96.639 C 27.256 96.021 26.287 94.575 26.278 92.969 L 26.278 50.309 C 26.287 48.703 27.256 47.257 28.738 46.639 L 36.008 43.639 C 37.4 43.058 39.001 43.309 40.148 44.289 L 41.778 45.639 C 40.397 44.646 38.459 45.521 38.289 47.213 C 38.282 47.288 38.278 47.364 38.278 47.439 L 38.278 95.839 C 38.274 97.54 40.113 98.608 41.588 97.761 C 41.654 97.724 41.717 97.683 41.778 97.639 Z"></path>
    <path class="d" d="M 28.738 96.639 C 27.256 96.021 26.287 94.575 26.278 92.969 L 26.278 92.639 C 26.297 94.417 28.234 95.508 29.764 94.602 C 29.955 94.49 30.128 94.351 30.278 94.189 L 92.278 25.639 C 94.077 23.849 96.808 23.384 99.098 24.479 L 118.878 33.999 C 120.957 34.999 122.279 37.102 122.278 39.409 L 122.278 39.639 C 122.276 36.721 119.116 34.901 116.59 36.362 C 116.414 36.464 116.246 36.58 116.088 36.709 L 41.778 97.639 L 40.148 99.039 C 39.001 100.019 37.4 100.27 36.008 99.689 Z"></path>
    <path class="e" d="M 28.738 46.639 C 27.256 47.257 26.287 48.703 26.278 50.309 L 26.278 50.639 C 26.297 48.861 28.234 47.77 29.764 48.676 C 29.955 48.788 30.128 48.927 30.278 49.089 L 92.278 117.639 C 94.077 119.429 96.808 119.894 99.098 118.799 L 118.878 109.279 C 120.957 108.279 122.279 106.176 122.278 103.869 L 122.278 103.639 C 122.276 106.556 119.116 108.377 116.59 106.916 C 116.414 106.814 116.246 106.698 116.088 106.569 L 41.778 45.639 L 40.148 44.239 C 38.991 43.276 37.391 43.044 36.008 43.639 Z"></path>
    <path class="f" d="M 99.098 118.799 C 96.808 119.894 94.077 119.429 92.278 117.639 C 94.201 119.548 97.47 118.66 98.162 116.04 C 98.238 115.749 98.278 115.45 98.278 115.149 L 98.278 28.149 C 98.288 25.439 95.36 23.736 93.009 25.083 C 92.742 25.235 92.496 25.422 92.278 25.639 C 94.077 23.849 96.808 23.384 99.098 24.479 L 118.878 33.989 C 120.957 34.989 122.279 37.092 122.278 39.399 L 122.278 103.879 C 122.279 106.186 120.957 108.289 118.878 109.289 Z"></path>
  </g>
</svg>